<svg width="24" height="24" viewBox="0 0 24 24" fill="none" xmlns="http://www.w3.org/2000/svg">
<path fill-rule="evenodd" clip-rule="evenodd" d="M15.4482 20.75H8.55186C6.71295 20.75 5.14536 19.4166 4.85041 17.6015L3.82541 11.2938C3.79309 11.0949 3.77686 10.8938 3.77686 10.6923C3.77686 8.62124 5.45579 6.94231 7.52686 6.94231H16.4732C16.6746 6.94231 16.8758 6.95854 17.0746 6.99086C19.1189 7.32305 20.5068 9.24954 20.1746 11.2938L19.1496 17.6015C18.8546 19.4166 17.2871 20.75 15.4482 20.75ZM8.55186 19.25H15.4482C16.5515 19.25 17.4921 18.4499 17.669 17.3609L18.694 11.0532C18.8933 9.82665 18.0606 8.67075 16.834 8.47144C16.7147 8.45205 16.594 8.44231 16.4732 8.44231H7.52686C6.28421 8.44231 5.27686 9.44967 5.27686 10.6923C5.27686 10.8132 5.2866 10.9339 5.30599 11.0532L6.33099 17.3609C6.50796 18.4499 7.44851 19.25 8.55186 19.25Z" fill="white"/>
<path fill-rule="evenodd" clip-rule="evenodd" d="M11.6923 3.25C14.0679 3.25 16.0169 5.0639 16.1295 7.35469L16.1346 7.56422V10.1538C16.1346 10.5681 15.7988 10.9038 15.3846 10.9038C15.0049 10.9038 14.6911 10.6217 14.6415 10.2556L14.6346 10.1538V7.56422C14.6346 6.01601 13.3231 4.75 11.6923 4.75C10.1197 4.75 8.84409 5.9272 8.75497 7.39946L8.75 7.56422V10.1538C8.75 10.5681 8.41421 10.9038 8 10.9038C7.6203 10.9038 7.30651 10.6217 7.25685 10.2556L7.25 10.1538V7.56422C7.25 5.1755 9.2447 3.25 11.6923 3.25Z" fill="white"/>
</svg>
