<svg width="21" height="20" viewBox="0 0 21 20" fill="none" xmlns="http://www.w3.org/2000/svg">
<path fill-rule="evenodd" clip-rule="evenodd" d="M10.6667 2.48494C13.1143 2.48494 13.4042 2.49425 14.3708 2.53835C15.2645 2.57914 15.7499 2.72848 16.0729 2.85398C16.5007 3.02026 16.8061 3.21894 17.1269 3.53969C17.4476 3.86044 17.6463 4.16584 17.8126 4.59368C17.9381 4.91673 18.0874 5.40209 18.1282 6.2958C18.1723 7.26242 18.1817 7.55232 18.1817 9.99994C18.1817 12.4476 18.1723 12.7375 18.1282 13.704C18.0874 14.5978 17.9381 15.0831 17.8126 15.4062C17.6463 15.834 17.4476 16.1394 17.1269 16.4602C16.8061 16.7809 16.5007 16.9796 16.0729 17.1459C15.7499 17.2714 15.2645 17.4207 14.3708 17.4615C13.4043 17.5056 13.1144 17.5149 10.6667 17.5149C8.21889 17.5149 7.92899 17.5056 6.96255 17.4615C6.06881 17.4207 5.58344 17.2714 5.26043 17.1459C4.83255 16.9796 4.52716 16.7809 4.2064 16.4602C3.88565 16.1394 3.68698 15.834 3.52072 15.4062C3.39519 15.0831 3.24586 14.5978 3.20507 13.7041C3.16097 12.7375 3.15165 12.4476 3.15165 9.99994C3.15165 7.55232 3.16097 7.26242 3.20507 6.29584C3.24586 5.40209 3.39519 4.91673 3.52072 4.59368C3.68698 4.16584 3.88565 3.86044 4.2064 3.53969C4.52716 3.21894 4.83255 3.02026 5.26043 2.85398C5.58344 2.72848 6.06881 2.57914 6.96251 2.53835C7.92914 2.49425 8.21903 2.48494 10.6667 2.48494ZM10.6666 0.833252C8.17711 0.833252 7.86498 0.843804 6.88726 0.888415C5.91154 0.932953 5.24522 1.08789 4.66212 1.31451C4.05933 1.54877 3.54812 1.86221 3.03852 2.37181C2.52892 2.88141 2.21548 3.39261 1.98122 3.9954C1.7546 4.57851 1.59967 5.24483 1.55513 6.22055C1.51052 7.19824 1.5 7.5104 1.5 9.99994C1.5 12.4895 1.51052 12.8016 1.55513 13.7793C1.59967 14.755 1.7546 15.4214 1.98122 16.0045C2.21548 16.6072 2.52892 17.1185 3.03852 17.6281C3.54812 18.1377 4.05933 18.4511 4.66212 18.6854C5.24522 18.912 5.91154 19.0669 6.88726 19.1115C7.86498 19.1561 8.17711 19.1666 10.6666 19.1666C13.1562 19.1666 13.4683 19.1561 14.446 19.1115C15.4218 19.0669 16.0881 18.912 16.6712 18.6854C17.274 18.4511 17.7852 18.1377 18.2948 17.6281C18.8044 17.1185 19.1178 16.6073 19.3521 16.0045C19.5787 15.4214 19.7336 14.755 19.7782 13.7793C19.8228 12.8016 19.8333 12.4895 19.8333 9.99994C19.8333 7.5104 19.8228 7.19824 19.7782 6.22055C19.7336 5.24483 19.5787 4.57851 19.3521 3.9954C19.1178 3.39261 18.8044 2.88141 18.2948 2.37181C17.7852 1.86221 17.274 1.54877 16.6712 1.31451C16.0881 1.08789 15.4218 0.932953 14.446 0.888415C13.4683 0.843804 13.1562 0.833252 10.6666 0.833252ZM10.6849 5.30746C8.08325 5.30746 5.97421 7.4165 5.97421 10.0181C5.97421 12.6197 8.08325 14.7288 10.6849 14.7288C13.2865 14.7288 15.3955 12.6197 15.3955 10.0181C15.3955 7.4165 13.2865 5.30746 10.6849 5.30746ZM10.6849 13.0759C8.9961 13.0759 7.62706 11.7069 7.62706 10.0181C7.62706 8.32935 8.9961 6.96031 10.6849 6.96031C12.3736 6.96031 13.7427 8.32935 13.7427 10.0181C13.7427 11.7069 12.3736 13.0759 10.6849 13.0759ZM16.6323 5.08919C16.6323 5.69188 16.1437 6.18047 15.541 6.18047C14.9383 6.18047 14.4497 5.69188 14.4497 5.08919C14.4497 4.48649 14.9383 3.99793 15.541 3.99793C16.1437 3.99793 16.6323 4.48649 16.6323 5.08919Z" fill="black"/>
</svg>
