<svg width="21" height="20" viewBox="0 0 21 20" fill="none" xmlns="http://www.w3.org/2000/svg">
<path fill-rule="evenodd" clip-rule="evenodd" d="M2.42039 7.01101H5.66886V18.3323H2.42039V7.01101ZM3.96182 5.59491H3.9383C2.76239 5.59491 2 4.72945 2 3.6335C2 2.51513 2.78492 1.66675 3.98436 1.66675C5.18282 1.66675 5.91972 2.51299 5.94324 3.63029C5.94324 4.72625 5.18282 5.59491 3.96182 5.59491ZM18.6667 18.3334H14.9831V12.4737C14.9831 10.9402 14.4069 9.89443 13.1399 9.89443C12.1707 9.89443 11.6317 10.5998 11.3809 11.2817C11.2868 11.525 11.3015 11.8655 11.3015 12.2069V18.3334H7.65224C7.65224 18.3334 7.69928 7.95436 7.65224 7.01101H11.3015V8.78781C11.5171 8.01092 12.6832 6.90216 14.5441 6.90216C16.8528 6.90216 18.6667 8.53169 18.6667 12.0373V18.3334Z" fill="black"/>
</svg>
