<svg width="21" height="20" viewBox="0 0 21 20" fill="none" xmlns="http://www.w3.org/2000/svg">
<path fill-rule="evenodd" clip-rule="evenodd" d="M4 7.41152C4 9.223 4.68181 10.8343 6.14318 11.4349C6.3829 11.5332 6.59734 11.4383 6.6669 11.171C6.71519 10.9865 6.82959 10.5201 6.88018 10.3257C6.95032 10.0619 6.9233 9.96935 6.72956 9.73908C6.30874 9.23862 6.03912 8.59121 6.03912 7.67361C6.03912 5.0128 8.01731 2.63027 11.1913 2.63027C14.0013 2.63027 15.5449 4.35844 15.5449 6.66575C15.5449 9.70205 14.2094 12.2651 12.2278 12.2651C11.1326 12.2651 10.3134 11.3539 10.5761 10.2366C10.8906 8.90248 11.4994 7.46243 11.4994 6.4997C11.4994 5.63764 11.0395 4.91907 10.0886 4.91907C8.9699 4.91907 8.0702 6.08372 8.0702 7.6441C8.0702 8.63865 8.40421 9.31037 8.40421 9.31037C8.40421 9.31037 7.25903 14.194 7.0584 15.0491C6.65885 16.7524 6.99861 18.8399 7.02735 19.0505C7.04403 19.1755 7.20327 19.2055 7.27571 19.1112C7.37918 18.9753 8.7112 17.3194 9.16536 15.6653C9.29299 15.1967 9.90064 12.7708 9.90064 12.7708C10.2645 13.4685 11.3269 14.0829 12.4566 14.0829C15.8208 14.0829 18.1026 10.9969 18.1026 6.86593C18.1026 3.74227 15.4736 0.833252 11.4781 0.833252C6.50708 0.833252 4 4.42035 4 7.41152Z" fill="black"/>
</svg>
