<svg width="24" height="24" viewBox="0 0 24 24" fill="none" xmlns="http://www.w3.org/2000/svg">
<path fill-rule="evenodd" clip-rule="evenodd" d="M10 3.25C6.27208 3.25 3.25 6.27208 3.25 10C3.25 13.7279 6.27208 16.75 10 16.75C13.7279 16.75 16.75 13.7279 16.75 10C16.75 6.27208 13.7279 3.25 10 3.25ZM10 4.75C12.8995 4.75 15.25 7.10051 15.25 10C15.25 12.8995 12.8995 15.25 10 15.25C7.10051 15.25 4.75 12.8995 4.75 10C4.75 7.10051 7.10051 4.75 10 4.75Z" fill="white"/>
<path fill-rule="evenodd" clip-rule="evenodd" d="M14.2697 14.2697C14.536 14.0035 14.9526 13.9792 15.2463 14.1971L15.3304 14.2697L20.1304 19.0697C20.4233 19.3626 20.4233 19.8375 20.1304 20.1304C19.8641 20.3966 19.4474 20.4209 19.1538 20.203L19.0697 20.1304L14.2697 15.3304C13.9768 15.0375 13.9768 14.5626 14.2697 14.2697Z" fill="white"/>
</svg>
