<svg width="24" height="24" viewBox="0 0 24 24" fill="none" xmlns="http://www.w3.org/2000/svg">
<path fill-rule="evenodd" clip-rule="evenodd" d="M11.6 3.25C8.53487 3.25 6.05005 5.73482 6.05005 8.8C6.05005 11.8652 8.53487 14.35 11.6 14.35C14.6652 14.35 17.15 11.8652 17.15 8.8C17.15 5.73482 14.6652 3.25 11.6 3.25ZM11.6 4.75C13.8368 4.75 15.65 6.56325 15.65 8.8C15.65 11.0368 13.8368 12.85 11.6 12.85C9.3633 12.85 7.55005 11.0368 7.55005 8.8C7.55005 6.56325 9.3633 4.75 11.6 4.75Z" fill="white"/>
<path fill-rule="evenodd" clip-rule="evenodd" d="M11.6 13.6499C15.107 13.6499 17.95 16.4929 17.95 19.9999C17.95 20.4141 17.6142 20.7499 17.2 20.7499C16.7858 20.7499 16.45 20.4141 16.45 19.9999C16.45 17.3213 14.2786 15.1499 11.6 15.1499C8.92142 15.1499 6.75 17.3213 6.75 19.9999C6.75 20.4141 6.41421 20.7499 6 20.7499C5.58579 20.7499 5.25 20.4141 5.25 19.9999C5.25 16.4929 8.09299 13.6499 11.6 13.6499Z" fill="white"/>
</svg>
